# xmcd
#
# Track frame offsets:
#	150
#	16195
#	30100
#	48360
#	66157
#	82952
#	99245
#	113863
#	132057
#	149387
#	162456
#	182067
#	196197
#	212626
#	230578
#	245092
#	256888
#	275331
#	288459
#
# Disc length: 4006 seconds
#
# Revision: 0
# Processed by: cddbd v1.5.2PL0 Copyright (c) Steve Scherf et al.
# Submitted via: audiograbber 1.83.01
#
DISCID=040fa413
DTITLE=Various Artist - CDX 418
DYEAR=2007
DGENRE=Country
TTITLE0=Pam Tillis - Band in the window
TTITLE1=Terri Clark - Dirty girl
TTITLE2=Jamie O'Neal - God don't make mistakes
TTITLE3=Carolyn Dawn Johnson - Got a good day
TTITLE4=Trent Tomlinson - Just might have her radio on
TTITLE5=Darryl Worley - Living in the here and now
TTITLE6=Lee Brice - She ain't right
TTITLE7=Brad Paisley - Ticks
TTITLE8=Royal Wade Kimes - Strikin' matches in the rain
TTITLE9=Ty England - The perfect girl
TTITLE10=David Jospeh - I'm coming home
TTITLE11=Jerry Adams - Play me some dirt
TTITLE12=Rhonda Towns - Storm before the calm
TTITLE13=Steve Hill and best friends - We'll always have Texas
TTITLE14=Dawn Sears - Leavin' and sayin' goodbye
TTITLE15=Aubrey Hayne, Kenny Spears, Joe Spivey and Jeff Taylor - Fidoolin'
TTITLE16=Kenny Sears - Bring it on down to my home
TTITLE17=Carolyn Martin - It's all your fault
TTITLE18="Ranger Doug" Green - My confession
EXTD=
EXTT0=
EXTT1=
EXTT2=
EXTT3=
EXTT4=
EXTT5=
EXTT6=
EXTT7=
EXTT8=
EXTT9=
EXTT10=
EXTT11=
EXTT12=
EXTT13=
EXTT14=
EXTT15=
EXTT16=
EXTT17=
EXTT18=
PLAYORDER=
